<?xml version="1.0" encoding="UTF-8"?>
<!-- Generator: https://ezgif.com/png-to-svg -->
<svg version="1.1" xmlns="http://www.w3.org/2000/svg" width="256" height="256">
<path d="M0 0 C0 0.66 0 1.32 0 2 C0.93 2.29 1.86 2.58 2.81 2.88 C6 4 6 4 9 6 C10.95 5.27 12.9 4.54 14.83 3.75 C21.1 1.57 26.48 3.05 32.34 5.6 C39.33 9.29 45.67 14.17 51 20 C51.6 20.6 52.2 21.2 52.81 21.81 C53.2 22.2 53.6 22.6 54 23 C57.95 21.68 58.47 19.97 60.56 16.44 C61.66 14.59 62.79 12.77 64 11 C64.66 11 65.32 11 66 11 C66.37 9.55 66.37 9.55 66.75 8.06 C68 5 68 5 69.75 3.88 C73.22 4.07 75.28 5.96 78 8 C79.07 7.34 80.15 6.68 81.25 6 C87.2 3.04 93.83 2.75 100.2 4.66 C102.27 5.63 104.09 6.74 106 8 C107.31 8.82 107.31 8.82 108.64 9.65 C116.48 14.78 116.48 14.78 118 20 C118.31 23.69 118.31 23.69 118 27 C117.01 27.66 116.02 28.32 115 29 C115.99 30.18 115.99 30.18 117 31.38 C119.85 35.65 119.68 40.04 119 45 C117.66 48.4 116.57 50.43 114 53 C110.59 52.63 107.31 51.89 104 51 C104.64 51.68 105.28 52.36 105.94 53.06 C108.33 56.46 108.68 58.9 109 63 C109.61 62.95 110.23 62.91 110.86 62.86 C117.43 62.57 117.43 62.57 120.06 64.56 C121.4 68.05 121.5 70.28 121 74 C119.79 76.14 118.43 78.13 117.05 80.16 C115.77 82.01 115.77 82.01 116.19 84.5 C116.59 85.74 116.59 85.74 117 87 C117.21 89.72 117.13 92.26 117 95 C115 97 115 97 112.76 97.27 C111.89 97.26 111.02 97.26 110.12 97.25 C109.26 97.26 108.4 97.26 107.51 97.27 C105 97 105 97 102.98 95.9 C100.99 94.76 100.99 94.76 98.64 95.46 C97.85 95.76 97.06 96.06 96.25 96.38 C95.45 96.67 94.65 96.97 93.83 97.27 C93.22 97.51 92.62 97.75 92 98 C93.21 98.87 93.21 98.87 94.44 99.75 C97.72 102.63 97.72 102.63 98 106 C98.53 114.49 98.53 114.49 96 118 C95.01 118.5 95.01 118.5 94 119 C94.08 120.22 94.16 121.43 94.25 122.69 C94.27 126.17 94.04 126.94 92 130 C91.34 130.66 90.68 131.32 90 132 C88.68 131.67 87.36 131.34 86 131 C86 130.34 86 129.68 86 129 C83.19 128.81 80.38 128.62 77.56 128.44 C76.76 128.38 75.96 128.33 75.13 128.27 C73.09 128.14 71.04 128.06 69 128 C68.67 128.33 68.34 128.66 68 129 C61.24 129.69 61.24 129.69 58.24 128.02 C55.98 126.17 54.18 124.29 52.64 121.81 C51.15 119.74 51.15 119.74 48.69 119.86 C47.8 120.01 46.91 120.16 46 120.31 C40.17 121.09 34.82 120.73 29 120 C29 117 29 117 30 116 C30.24 113.31 30.42 110.64 30.56 107.94 C30.63 106.8 30.63 106.8 30.69 105.64 C30.8 103.76 30.9 101.88 31 100 C30.5 100.34 30.01 100.68 29.5 101.02 C23.82 104.75 18.94 107 12 107 C12 107.66 12 108.32 12 109 C8.57 109.77 5.39 110.13 1.88 110.13 C0.44 110.13 0.44 110.13 -1.02 110.14 C-2 110.13 -2.99 110.13 -4 110.12 C-4.98 110.13 -5.97 110.13 -6.98 110.14 C-7.94 110.14 -8.89 110.13 -9.88 110.13 C-10.74 110.13 -11.6 110.13 -12.49 110.13 C-15.08 110 -17.48 109.57 -20 109 C-20 108.34 -20 107.68 -20 107 C-21.11 106.94 -22.23 106.88 -23.38 106.81 C-28.67 106.18 -35.16 103.84 -39 100 C-38.89 102.61 -38.76 105.21 -38.62 107.81 C-38.59 108.55 -38.56 109.29 -38.53 110.05 C-38.33 113.82 -38.14 115.8 -36 119 C-42.27 120.73 -48.94 121.6 -55.31 120.12 C-58.9 119.6 -58.9 119.6 -60.72 121.42 C-62.33 123.28 -62.33 123.28 -63.68 125.24 C-65 127 -65 127 -68 129 C-71.42 129.4 -74.87 129.56 -78 128 C-80.72 128.09 -83.41 128.23 -86.12 128.44 C-86.88 128.49 -87.63 128.54 -88.41 128.6 C-90.27 128.73 -92.14 128.86 -94 129 C-94.33 129.99 -94.66 130.98 -95 132 C-97.54 131.65 -98.82 131.16 -100.75 129.44 C-102.09 126.82 -102.1 125.74 -102 122.88 C-102 121.6 -102 120.32 -102 119 C-103.48 118.01 -103.48 118.01 -105 117 C-106.55 112.34 -106.5 107.89 -105.25 103.19 C-103.83 100.71 -102.31 99.64 -100 98 C-101.6 97.44 -103.2 96.9 -104.81 96.38 C-105.71 96.07 -106.6 95.77 -107.52 95.46 C-110.24 94.66 -110.24 94.66 -113 97 C-115.41 97.27 -115.41 97.27 -118.06 97.25 C-118.94 97.26 -119.82 97.26 -120.72 97.27 C-123 97 -123 97 -125 95 C-125.34 88.05 -125.34 88.05 -124.19 84.5 C-123.96 81.4 -124.72 80.65 -126.44 78.12 C-129.04 74.28 -129.73 71.72 -129 67 C-128.06 64.56 -128.06 64.56 -126 63 C-122.97 62.67 -120.03 62.77 -117 63 C-116.88 61.42 -116.88 61.42 -116.75 59.81 C-115.95 55.73 -114.81 53.99 -112 51 C-112.54 51.14 -113.07 51.29 -113.62 51.44 C-116.4 52.09 -119.19 52.55 -122 53 C-126.39 47.76 -127.33 44.22 -127.3 37.52 C-126.85 33.76 -125.41 31.87 -123 29 C-123.99 28.34 -124.98 27.68 -126 27 C-126.6 21.8 -126.01 18.29 -123 14 C-120.17 11.69 -117.15 9.84 -114 8 C-113.36 7.58 -112.72 7.16 -112.05 6.73 C-106.32 3.33 -100.53 3.11 -94 4 C-90.81 5.04 -87.92 6.35 -85 8 C-84.26 7.32 -83.52 6.64 -82.75 5.94 C-80 4 -80 4 -77.81 3.88 C-75.03 5.6 -74.78 7.93 -74 11 C-73.34 11 -72.68 11 -72 11 C-70.6 13.01 -69.43 15.12 -68.22 17.25 C-67.82 17.83 -67.41 18.41 -67 19 C-66.34 19 -65.68 19 -65 19 C-64.15 17.64 -64.15 17.64 -63.28 16.26 C-57.58 8.11 -46.53 4.34 -37.13 2.38 C-36.43 2.25 -35.73 2.13 -35 2 C-35 1.34 -35 0.68 -35 0 C-23.15 -5.35 -12.19 -4.38 0 0 Z " fill="#3E0970" transform="translate(132,80)"/>
<path d="M0 0 C2.64 0.66 5.28 1.32 8 2 C8 2.66 8 3.32 8 4 C9.39 4.43 9.39 4.43 10.81 4.88 C14 6 14 6 17 8 C18.95 7.27 20.9 6.54 22.83 5.75 C29.1 3.57 34.48 5.05 40.34 7.6 C47.33 11.29 53.67 16.17 59 22 C59.6 22.6 60.2 23.2 60.81 23.81 C61.2 24.2 61.6 24.6 62 25 C65.95 23.68 66.47 21.97 68.56 18.44 C69.66 16.59 70.79 14.77 72 13 C72.66 13 73.32 13 74 13 C74.37 11.55 74.37 11.55 74.75 10.06 C76 7 76 7 77.75 5.88 C81.22 6.07 83.28 7.96 86 10 C87.07 9.34 88.15 8.68 89.25 8 C95.2 5.04 101.83 4.75 108.2 6.66 C110.27 7.63 112.09 8.74 114 10 C115.31 10.82 115.31 10.82 116.64 11.65 C124.48 16.78 124.48 16.78 126 22 C126.31 25.69 126.31 25.69 126 29 C125.01 29.66 124.02 30.32 123 31 C123.99 32.18 123.99 32.18 125 33.38 C127.85 37.65 127.68 42.04 127 47 C125.66 50.4 124.57 52.43 122 55 C118.59 54.63 115.31 53.89 112 53 C112.64 53.68 113.28 54.36 113.94 55.06 C116.33 58.46 116.68 60.9 117 65 C117.61 64.95 118.23 64.91 118.86 64.86 C125.43 64.57 125.43 64.57 128.06 66.56 C129.4 70.05 129.5 72.28 129 76 C127.79 78.14 126.43 80.13 125.05 82.16 C123.77 84.01 123.77 84.01 124.19 86.5 C124.59 87.74 124.59 87.74 125 89 C125.21 91.72 125.13 94.26 125 97 C123 99 123 99 120.76 99.27 C119.89 99.26 119.02 99.26 118.12 99.25 C117.26 99.26 116.4 99.26 115.51 99.27 C113 99 113 99 110.98 97.9 C108.99 96.76 108.99 96.76 106.64 97.46 C105.85 97.76 105.06 98.06 104.25 98.38 C103.45 98.67 102.65 98.97 101.83 99.27 C101.22 99.51 100.62 99.75 100 100 C101.21 100.87 101.21 100.87 102.44 101.75 C105.72 104.63 105.72 104.63 106 108 C106.53 116.49 106.53 116.49 104 120 C103.01 120.5 103.01 120.5 102 121 C102.08 122.22 102.16 123.43 102.25 124.69 C102.27 128.17 102.04 128.94 100 132 C99.34 132.66 98.68 133.32 98 134 C96.68 133.67 95.36 133.34 94 133 C94 132.34 94 131.68 94 131 C91.19 130.81 88.38 130.62 85.56 130.44 C84.76 130.38 83.96 130.33 83.13 130.27 C81.09 130.14 79.04 130.06 77 130 C76.67 130.33 76.34 130.66 76 131 C69.24 131.69 69.24 131.69 66.24 130.02 C63.98 128.17 62.18 126.29 60.64 123.81 C59.15 121.74 59.15 121.74 56.69 121.86 C55.8 122.01 54.91 122.16 54 122.31 C48.17 123.09 42.82 122.73 37 122 C37 119 37 119 38 118 C38.24 115.31 38.42 112.64 38.56 109.94 C38.63 108.8 38.63 108.8 38.69 107.64 C38.8 105.76 38.9 103.88 39 102 C38.26 102.51 38.26 102.51 37.5 103.02 C31.82 106.75 26.94 109 20 109 C20 109.66 20 110.32 20 111 C15.95 111.98 12.16 112.08 8 112 C8 110.68 8 109.36 8 108 C6.68 108 5.36 108 4 108 C4.93 103.22 4.93 103.22 5.69 100.88 C6.27 98.67 6.27 98.67 4 96 C4 95.01 4 94.02 4 93 C7.3 93.33 10.6 93.66 14 94 C14 94.66 14 95.32 14 96 C15.32 96 16.64 96 18 96 C19.65 93.03 20.44 90.34 21 87 C20.75 87.62 20.5 88.24 20.25 88.88 C18.73 91.46 17.8 91.99 15 93 C12.42 92.76 12.42 92.76 9.75 92.12 C8.86 91.92 7.97 91.72 7.05 91.51 C6.37 91.34 5.7 91.17 5 91 C2.35 81.14 0.85 71.16 0 61 C-0.39 61.61 -0.79 62.23 -1.19 62.86 C-5.12 67.51 -11.51 68.65 -17.37 69.24 C-19.98 69.39 -22.58 69.47 -25.19 69.5 C-26.02 69.52 -26.85 69.54 -27.7 69.56 C-35.01 69.48 -41.67 67.5 -47.06 62.38 C-49 60 -49 60 -49 58 C-49.99 57.67 -50.98 57.34 -52 57 C-55.13 51.33 -55.24 46.2 -54 40 C-49.99 41.38 -47.23 43.28 -44 46 C-43.01 46.66 -42.02 47.32 -41 48 C-41 48.66 -41 49.32 -41 50 C-34.35 51.9 -27.45 53.47 -21.09 49.94 C-15.39 45.52 -12.14 39.2 -8.91 32.87 C-7.31 29.8 -6.37 28.19 -3.25 26.56 C-2.51 26.38 -1.77 26.19 -1 26 C-1 24.35 -1 22.7 -1 21 C3.79 18.19 8.59 18.36 14 19 C18.48 21.24 21.53 24.43 25 28 C25.99 28.66 26.98 29.32 28 30 C28 30.99 28 31.98 28 33 C28.81 32.52 28.81 32.52 29.63 32.03 C34.2 30.05 39.13 30.37 44 31 C48.56 34.04 51.23 38.85 53 44 C53.97 49.66 52.58 54.04 50 59 C49.01 59.99 49.01 59.99 48 61 C45.87 60.62 45.87 60.62 44 60 C43.5 57.03 43.5 57.03 43 54 C42.01 54.5 42.01 54.5 41 55 C39.23 60.49 39.18 67.55 41 73 C41.13 75.67 41.04 78.32 41 81 C41.56 81.27 42.11 81.54 42.69 81.81 C45 83 45 83 47.31 84.69 C50.99 86.48 53.07 85.97 57 85 C60.33 83.54 60.33 83.54 63 82 C62.67 81.01 62.34 80.02 62 79 C61.07 79.04 60.14 79.08 59.19 79.12 C56 79 56 79 53 77 C52.81 73.37 52.81 73.37 53 70 C54.55 69.6 54.55 69.6 56.12 69.19 C59.65 68.19 62.77 66.73 66 65 C65.43 60.87 65.43 60.87 64 57 C63.97 53.33 64.03 49.67 64.13 46 C64.22 39.68 64.09 33.45 59.81 28.44 C58.88 27.63 57.96 26.83 57 26 C55.72 24.78 54.45 23.55 53.19 22.31 C52.58 21.73 51.98 21.15 51.36 20.55 C50 19 50 19 50 17 C49.3 16.73 48.59 16.47 47.87 16.2 C44.83 14.93 42.02 13.43 39.12 11.88 C33.03 8.81 29.19 8.07 22.56 10 C21.72 10.33 20.87 10.66 20 11 C22.71 16.64 25.29 21.8 30 26 C29.34 26.66 28.68 27.32 28 28 C23.87 25.05 21.46 22.37 18.94 17.94 C14.35 9.99 8.23 7.52 0 4 C0 2.68 0 1.36 0 0 Z " fill="#65099B" transform="translate(124,78)"/>
<path d="M0 0 C0 0.66 0 1.32 0 2 C0.95 2.06 1.9 2.12 2.88 2.19 C10.51 3.32 17.05 7.11 21.77 13.16 C22.99 14.98 24.03 16.82 25.06 18.75 C27.08 22.13 28.5 23.35 32 25 C31.2 21.86 31.2 21.86 28.69 19.69 C25.95 16.95 23.9 14.36 22 11 C22.33 10.01 22.66 9.02 23 8 C27.42 6 31.19 5.68 36 6 C39.57 7.36 39.57 7.36 43.12 9.19 C44.3 9.78 45.48 10.37 46.7 10.98 C50.03 13.02 52.33 15.16 55 18 C57.28 20 59.59 21.97 61.91 23.94 C65.6 27.58 67.33 30.83 67.69 36 C67.79 37.43 67.79 37.43 67.89 38.88 C68.04 43.28 67.97 47.66 67.84 52.05 C68.01 55.13 68.76 57.2 70 60 C70 62.12 70 62.12 69 64 C65.1 66.45 61.55 67.46 57 68 C57 70.31 57 72.62 57 75 C59.64 75.66 62.28 76.32 65 77 C65 77.66 65 78.32 65 79 C65.66 79.33 66.32 79.66 67 80 C62.33 82.95 58.69 85 53 85 C49.75 83.19 49.75 83.19 47 81 C45.51 80.01 45.51 80.01 44 79 C43.68 77 43.37 74.99 43.21 72.97 C43.05 70.79 43.05 70.79 42 68 C41.58 62.31 41.76 57.33 44 52 C44.66 52 45.32 52 46 52 C46.99 54.97 46.99 54.97 48 58 C49.93 58.04 49.93 58.04 52 57 C54.76 52.17 55.97 47.6 55 42 C53.3 37.2 51.02 33.21 47 30 C44.09 29.48 44.09 29.48 41 29.69 C39.97 29.71 38.94 29.74 37.88 29.76 C35.45 29.96 33.33 30.31 31 31 C31 30.01 31 29.02 31 28 C30.44 27.77 29.89 27.55 29.31 27.31 C26.37 25.64 24.39 23.39 22 21 C17.97 17.57 13.97 17.37 8.85 17.52 C1.97 18.68 -3.32 23.62 -7.58 28.92 C-10.42 33.07 -12.72 37.53 -15 42 C-15.66 42 -16.32 42 -17 42 C-17 42.66 -17 43.32 -17 44 C-20.09 45.76 -21.23 46 -25 46 C-25 46.66 -25 47.32 -25 48 C-25.99 48 -26.98 48 -28 48 C-28 47.34 -28 46.68 -28 46 C-28.97 45.96 -29.94 45.92 -30.94 45.88 C-36.06 45.16 -40.07 42.22 -44 39 C-46 36 -46 36 -45.75 33.43 C-42.01 18.51 -35.09 10.89 -22.23 3.1 C-20 2 -20 2 -17 2 C-17 1.34 -17 0.68 -17 0 C-11.23 -1.4 -5.82 -0.67 0 0 Z " fill="#7B41B1" transform="translate(121,80)"/>
<path d="M0 0 C0.95 0.04 1.9 0.08 2.88 0.12 C3.41 1.26 3.95 2.39 4.5 3.56 C6.26 6.63 6.26 6.63 9.5 8.06 C11.45 8.1 13.4 8.12 15.34 8.09 C16.22 8.08 17.1 8.07 18 8.06 C18.83 8.03 19.66 8 20.51 7.96 C23.13 8.14 24.66 8.73 26.88 10.12 C28.83 13.89 27.01 17.29 25.88 21.12 C25.44 24.12 25.13 27.11 24.88 30.12 C23.25 30.29 23.25 30.29 21.59 30.46 C20.14 30.62 18.7 30.78 17.25 30.94 C16.18 31.04 16.18 31.04 15.09 31.15 C10.46 31.68 6.98 32.76 2.88 35.12 C5.64 36.35 5.64 36.35 7.58 35.69 C10.91 34.87 14.22 35.02 17.62 35.06 C18.32 35.07 19.02 35.07 19.74 35.08 C21.45 35.09 23.16 35.11 24.88 35.12 C25.08 35.79 25.29 36.45 25.5 37.14 C27.79 43.68 29.86 46.65 35.88 50.12 C33.8 55.6 31.99 58.24 26.88 61.12 C26.37 61.51 25.86 61.89 25.33 62.29 C16.4 68.73 3.73 71.06 -7.12 70.12 C-6.19 65.34 -6.19 65.34 -5.44 63 C-4.85 60.8 -4.85 60.8 -7.12 58.12 C-7.12 57.13 -7.12 56.15 -7.12 55.12 C-3.82 55.45 -0.53 55.78 2.88 56.12 C2.88 56.78 2.88 57.44 2.88 58.12 C4.19 58.12 5.51 58.12 6.88 58.12 C8.52 55.16 9.32 52.47 9.88 49.12 C9.63 49.74 9.38 50.36 9.12 51 C7.6 53.59 6.67 54.11 3.88 55.12 C1.3 54.88 1.3 54.88 -1.38 54.25 C-2.27 54.05 -3.16 53.84 -4.08 53.63 C-4.75 53.47 -5.43 53.3 -6.12 53.12 C-7.9 46.52 -9.05 39.88 -10.12 33.12 C-10.36 32.1 -10.59 31.08 -10.83 30.02 C-11.17 26.65 -10.7 25.64 -8.75 22.94 C-4.62 17.09 -5.1 12.3 -5.29 5.28 C-5.07 0.95 -4.34 0.17 0 0 Z " fill="#CE9BEA" transform="translate(135.125,115.875)"/>
<path d="M0 0 C5.05 2.6 8.36 5.23 10.31 10.62 C9.94 14.67 8.93 16.24 6 19 C5.34 19 4.68 19 4 19 C3.71 18.36 3.42 17.72 3.12 17.06 C2.17 14.85 2.17 14.85 0 14 C-4.57 13.53 -4.57 13.53 -8.72 15.09 C-10.65 17.97 -10.18 20.34 -10 23.75 C-9.88 29.51 -10.06 33.06 -13 38 C-13.47 38.89 -13.95 39.77 -14.44 40.69 C-21.33 46.9 -30.31 47.38 -39.19 47.5 C-40.02 47.52 -40.85 47.54 -41.71 47.56 C-49.01 47.48 -55.67 45.5 -61.06 40.38 C-63 38 -63 38 -63 36 C-63.99 35.67 -64.98 35.34 -66 35 C-69.13 29.33 -69.24 24.2 -68 18 C-63.99 19.38 -61.23 21.28 -58 24 C-57.01 24.66 -56.02 25.32 -55 26 C-55 26.66 -55 27.32 -55 28 C-48.35 29.9 -41.45 31.47 -35.09 27.94 C-29.51 23.61 -25.99 17.35 -23.09 11.01 C-19.02 2.47 -9.19 -2.41 0 0 Z " fill="#FE93E3" transform="translate(138,100)"/>
<path d="M0 0 C0.76 0.47 1.53 0.95 2.31 1.44 C4.96 3.1 4.96 3.1 8 4 C9.99 3.23 9.99 3.23 12.06 2.06 C17.79 -0.61 23.2 -1.28 29.27 0.77 C33.24 2.62 35.95 4.84 39 8 C39.99 8 40.98 8 42 8 C44.6 11.37 45.36 13.77 45 18 C43.02 18.66 41.04 19.32 39 20 C39.63 20.72 39.63 20.72 40.28 21.46 C40.83 22.09 41.37 22.72 41.94 23.38 C42.48 24 43.03 24.63 43.59 25.27 C46.55 28.9 46.35 32.5 46 37 C45.12 39.94 45.12 39.94 44 42 C43.01 42.5 43.01 42.5 42 43 C39.38 42.06 39.38 42.06 37 41 C37 40.34 37 39.68 37 39 C35.68 39 34.36 39 33 39 C32.67 39.99 32.34 40.98 32 42 C30.68 41.67 29.36 41.34 28 41 C28 40.34 28 39.68 28 39 C26.68 39 25.36 39 24 39 C24 39.66 24 40.32 24 41 C17.94 44.61 13.34 46.51 6.24 46.11 C3.85 45.91 3.85 45.91 0.94 46.56 C-3.14 47.17 -6.94 46.59 -11 46 C-11 43.36 -11 40.72 -11 38 C-10.14 37.99 -9.28 37.97 -8.39 37.96 C4.32 37.44 16.54 33.45 27 26 C29.03 22.99 29 21.81 29 18 C20.21 17.64 12.76 18.28 4.2 20.34 C0.02 21.2 -3.74 21.14 -8 21 C-10.89 21.42 -10.89 21.42 -13 22 C-12.38 18.62 -11.13 16.48 -9.06 13.75 C-8.54 13.04 -8.01 12.34 -7.47 11.61 C-6.74 10.81 -6.74 10.81 -6 10 C-5.34 10 -4.68 10 -4 10 C-3.71 9.28 -3.42 8.56 -3.12 7.81 C-2.08 5.21 -1.04 2.6 0 0 Z " fill="#ACEDFF" transform="translate(202,87)"/>
<path d="M0 0 C2 1 2 1 3.05 4 C4.17 8.27 4.67 12.56 5.12 16.94 C5.21 17.72 5.3 18.5 5.39 19.3 C5.6 21.2 5.8 23.1 6 25 C9.96 25.33 13.92 25.66 18 26 C18.99 24.02 19.98 22.04 21 20 C21.66 20.33 22.32 20.66 23 21 C22.48 24.77 21.73 27.27 19 30 C17.68 30 16.36 30 15 30 C15 29.34 15 28.68 15 28 C11.7 27.67 8.4 27.34 5 27 C5.52 27.91 6.03 28.81 6.56 29.75 C8 33 8 33 7.81 35.06 C7.54 35.7 7.28 36.34 7 37 C6.47 38.36 6.47 38.36 5.94 39.75 C5.63 40.49 5.32 41.24 5 42 C-6.84 43.02 -19.44 40.11 -29 33 C-30.21 32.38 -30.21 32.38 -31.45 31.74 C-34.71 29.52 -36.16 27.12 -38.19 23.75 C-38.86 22.65 -39.54 21.55 -40.23 20.42 C-42.05 16.9 -43.05 13.83 -44 10 C-42.66 9.29 -41.3 8.61 -39.94 7.94 C-39.18 7.55 -38.43 7.17 -37.65 6.78 C-34.15 5.75 -31.59 6.4 -28 7 C-25.32 7.04 -22.67 7.05 -20 7 C-14.88 6.9 -10.04 7.16 -5 8 C-5.99 6.68 -6.98 5.36 -8 4 C-6.71 3.3 -5.42 2.62 -4.12 1.94 C-3.41 1.55 -2.69 1.17 -1.95 0.78 C-1.3 0.52 -0.66 0.26 0 0 Z " fill="#9863D7" transform="translate(123,144)"/>
<path d="M0 0 C2.02 0.92 2.02 0.92 4.02 -0.08 C4.67 -0.49 5.33 -0.9 6.01 -1.32 C7.34 -1.99 8.67 -2.65 10.01 -3.32 C10.68 -2.03 11.34 -0.74 12.01 0.55 C12.38 1.27 12.75 1.99 13.13 2.73 C14.01 4.68 14.01 4.68 14.01 6.68 C15 7.01 15.99 7.34 17.01 7.68 C18.7 10.74 18.7 10.74 20.01 13.68 C19.01 15.68 19.01 15.68 17.01 17.68 C11.8 18.37 7.47 17.37 2.38 16.18 C-4.89 14.5 -11.55 14.37 -18.99 14.68 C-18.42 18.81 -18.42 18.81 -16.99 22.68 C-8.72 28.2 0.7 31.39 10.01 34.68 C9.68 37.65 9.35 40.62 9.01 43.68 C8.16 43.51 7.32 43.35 6.45 43.18 C3.05 42.56 3.05 42.56 -0.24 42.93 C-5.53 42.58 -9.43 40.25 -13.99 37.68 C-13.99 37.02 -13.99 36.36 -13.99 35.68 C-15.31 35.68 -16.63 35.68 -17.99 35.68 C-17.99 36.34 -17.99 37 -17.99 37.68 C-19.97 38.17 -19.97 38.17 -21.99 38.68 C-22.49 37.19 -22.49 37.19 -22.99 35.68 C-24.31 35.68 -25.63 35.68 -26.99 35.68 C-26.99 36.34 -26.99 37 -26.99 37.68 C-28.97 38.34 -30.95 39 -32.99 39.68 C-36.1 36.57 -35.95 34.17 -36.3 29.8 C-36.25 24.61 -33.71 21.51 -30.24 17.8 C-29.83 17.43 -29.42 17.06 -28.99 16.68 C-30.97 16.02 -32.95 15.36 -34.99 14.68 C-34.24 8.05 -34.24 8.05 -31.99 4.68 C-31.23 4.56 -30.47 4.43 -29.68 4.3 C-26.02 3.45 -24.58 1.34 -21.99 -1.32 C-14.92 -5.56 -6.77 -3.82 0 0 Z " fill="#ACEDFF" transform="translate(43.9921875,90.3203125)"/>
<path d="M0 0 C3.34 0.19 4.91 0.93 7.56 3 C9.83 5.79 10.59 7.46 11.75 10.75 C12.59 13.12 12.59 13.12 14 15 C17.03 16.08 19.81 16.17 23 16 C24.61 21.84 24.61 21.84 22.92 25.05 C22.45 25.75 21.98 26.46 21.5 27.19 C18.02 32.73 18.93 37.76 20 44 C17.36 44 14.72 44 12 44 C12 43.34 12 42.68 12 42 C11.34 42 10.68 42 10 42 C8.38 40.5 8.38 40.5 7 39 C6.34 39.99 5.68 40.98 5 42 C4.34 42 3.68 42 3 42 C3 42.66 3 43.32 3 44 C0.36 44 -2.28 44 -5 44 C-5.5 41.53 -5.5 41.53 -6 39 C-6.99 39.5 -6.99 39.5 -8 40 C-8 42.31 -8 44.62 -8 47 C-9.32 46.67 -10.64 46.34 -12 46 C-11.67 43.03 -11.34 40.06 -11 37 C-11.65 37.03 -12.3 37.05 -12.97 37.08 C-15.92 37.18 -18.86 37.25 -21.81 37.31 C-22.84 37.35 -23.86 37.4 -24.92 37.44 C-27.7 37.49 -30.26 37.49 -33 37 C-35.2 34.48 -35.2 34.48 -36 32 C-34.48 29.37 -33.16 27.16 -31 25 C-30.01 25.66 -29.02 26.32 -28 27 C-28 27.66 -28 28.32 -28 29 C-20.41 29 -12.82 29 -5 29 C-5 28.34 -5 27.68 -5 27 C-3.41 26.8 -3.41 26.8 -1.79 26.6 C-0.4 26.42 0.99 26.24 2.38 26.06 C3.07 25.98 3.77 25.89 4.49 25.8 C8.37 25.34 8.37 25.34 12 24 C12.32 20.39 12.32 20.39 10.75 17.25 C7.29 14.78 3.71 14.89 -0.43 14.97 C-1.47 14.98 -2.52 15 -3.59 15.01 C-5.77 15.04 -7.95 15.08 -10.14 15.13 C-15.49 15.18 -20.01 15.22 -25 13 C-25 12.34 -25 11.68 -25 11 C-25.74 10.73 -26.49 10.46 -27.25 10.19 C-29.88 9.05 -31.76 7.75 -34 6 C-33.11 6.01 -32.22 6.02 -31.3 6.04 C-29.54 6.05 -29.54 6.05 -27.75 6.06 C-26.01 6.08 -26.01 6.08 -24.23 6.1 C-21.56 6.02 -19.55 5.68 -17 5 C-15.76 5.06 -14.53 5.12 -13.25 5.19 C-8.49 5.28 -4.98 3.47 -1 1 C-0.67 0.67 -0.34 0.34 0 0 Z " fill="#ACEDFF" transform="translate(226,130)"/>
<path d="M0 0 C3.38 0.31 5.74 1.39 8.62 3.06 C12.98 5.38 16.73 5.26 21.58 4.95 C24 5 24 5 27 7 C27.69 10.12 27.69 10.12 28 13 C24.3 14.71 21.5 15.22 17.44 15.12 C16.39 15.11 15.35 15.09 14.27 15.08 C12.09 15.03 9.91 14.97 7.73 14.92 C6.68 14.91 5.64 14.89 4.56 14.88 C3.14 14.84 3.14 14.84 1.69 14.8 C-2.38 15.1 -5.11 16.11 -8 19 C-8.17 21.58 -8.17 21.58 -8 24 C-2.44 26.25 3.08 26.6 9 27 C9 27.66 9 28.32 9 29 C16.26 29 23.52 29 31 29 C31.49 27.51 31.49 27.51 32 26 C32.99 26.33 33.98 26.66 35 27 C34.97 29.02 34.93 31.04 34.9 33.05 C34.87 35.08 34.87 35.08 36 37 C29.07 37 22.14 37 15 37 C15.49 41.95 15.49 41.95 16 47 C14.68 47 13.36 47 12 47 C12 44.36 12 41.72 12 39 C11.34 39 10.68 39 10 39 C9.67 40.65 9.34 42.3 9 44 C6.36 44 3.72 44 1 44 C1 43.34 1 42.68 1 42 C-0.48 41.5 -0.48 41.5 -2 41 C-2.66 40.34 -3.32 39.68 -4 39 C-4.66 39.99 -5.32 40.98 -6 42 C-6.66 42 -7.32 42 -8 42 C-8 42.66 -8 43.32 -8 44 C-10.64 44 -13.28 44 -16 44 C-15.87 43.24 -15.74 42.48 -15.61 41.69 C-14.67 34.66 -15.01 30.95 -18.92 25.05 C-20.67 21.73 -19.97 19.52 -19 16 C-18.4 16.03 -17.79 16.06 -17.17 16.1 C-14.54 16.06 -12.49 15.89 -10 15 C-8.5 12.84 -7.76 10.77 -6.9 8.3 C-5.59 4.96 -3.68 3.32 -1 1 C-0.67 0.67 -0.34 0.34 0 0 Z " fill="#ACEDFF" transform="translate(26,130)"/>
<path d="M0 0 C1.69 1.44 1.69 1.44 2.69 5.44 C9.95 5.11 17.21 4.78 24.69 4.44 C24.69 5.43 24.69 6.42 24.69 7.44 C24.03 7.44 23.37 7.44 22.69 7.44 C22.5 8.3 22.5 8.3 22.31 9.19 C21.68 11.46 20.77 13.35 19.69 15.44 C20.66 15.4 21.64 15.37 22.64 15.33 C23.92 15.3 25.19 15.28 26.5 15.25 C27.76 15.22 29.03 15.18 30.33 15.14 C33.69 15.44 33.69 15.44 35.57 16.76 C38.06 20.51 37.93 24.08 37.69 28.44 C37.03 29.1 36.37 29.76 35.69 30.44 C34.7 30.44 33.71 30.44 32.69 30.44 C33.18 31.21 33.18 31.21 33.69 32 C35.05 35.31 35.01 37.89 34.69 41.44 C33.19 43.38 33.19 43.38 31.69 44.44 C31.34 43.95 30.99 43.47 30.63 42.97 C27.04 40.14 22.25 40.95 17.84 40.84 C16.28 40.64 16.28 40.64 14.69 40.44 C14.03 39.45 13.37 38.46 12.69 37.44 C12.03 37.44 11.37 37.44 10.69 37.44 C10.69 38.76 10.69 40.08 10.69 41.44 C8 41.75 8 41.75 4.69 41.44 C1.85 39.02 -0.28 36.49 -2.5 33.5 C-5.05 31.17 -5.05 31.17 -7.64 31.61 C-9.39 32 -11.13 32.42 -12.86 32.88 C-15.91 33.57 -18.31 33.23 -21.31 32.44 C-21.52 25.39 -21.39 19.2 -19.31 12.44 C-18.9 12.82 -18.49 13.21 -18.06 13.61 C-13.75 17.49 -9.59 20.03 -4.31 22.44 C-4.31 23.1 -4.31 23.76 -4.31 24.44 C-3.49 24.71 -2.66 24.97 -1.81 25.25 C0.01 25.87 1.84 26.5 3.62 27.24 C9.82 29.79 14.72 30.3 21.12 27.94 C22.3 27.44 23.48 26.95 24.69 26.44 C24.69 25.12 24.69 23.8 24.69 22.44 C16.47 17.86 8.12 13.6 -0.31 9.44 C-0.31 8.78 -0.31 8.12 -0.31 7.44 C-1.08 7.17 -1.84 6.9 -2.62 6.62 C-5.19 5.49 -6.51 4.53 -8.31 2.44 C-2.97 -0.72 -2.97 -0.72 0 0 Z " fill="#ACEDFF" transform="translate(188.3125,164.5625)"/>
<path d="M0 0 C3.6 0.11 7.21 0.24 10.81 0.38 C12.35 0.42 12.35 0.42 13.92 0.47 C14.9 0.51 15.88 0.55 16.89 0.59 C17.8 0.62 18.71 0.65 19.64 0.68 C22 1 22 1 25 3 C25 3.66 25 4.32 25 5 C23.95 5.52 22.9 6.04 21.82 6.57 C14.45 10.23 7.12 13.89 0 18 C0 19.32 0 20.64 0 22 C7.41 25.12 12.51 26.14 20.19 23.06 C21.42 22.52 21.42 22.52 22.67 21.97 C24.78 21.09 26.77 20.49 29 20 C29 19.34 29 18.68 29 18 C29.52 17.77 30.04 17.54 30.57 17.3 C35.24 15.12 38.47 12.85 42 9 C42.66 8.67 43.32 8.34 44 8 C46.08 14.76 46.21 20.96 46 28 C40.16 29.24 35.73 28.57 30 27 C29.53 27.55 29.06 28.11 28.57 28.68 C27.95 29.4 27.33 30.13 26.69 30.88 C26.07 31.59 25.46 32.31 24.82 33.05 C22.2 35.86 20.7 36.97 16.81 37.12 C15.88 37.08 14.96 37.04 14 37 C14 35.68 14 34.36 14 33 C13.34 33 12.68 33 12 33 C11.34 33.99 10.68 34.98 10 36 C6.88 36.41 6.88 36.41 3.12 36.5 C-3.05 36.64 -3.05 36.64 -8 40 C-10.47 36.3 -10.31 34.38 -10 30 C-9 27.56 -9 27.56 -8 26 C-9.32 26 -10.64 26 -12 26 C-13.53 22.94 -13.23 20.38 -13 17 C-11.84 14.69 -10.83 12.83 -9 11 C-6.65 10.93 -4.29 10.92 -1.94 10.94 C-0.65 10.95 0.64 10.96 1.97 10.96 C2.97 10.98 3.97 10.99 5 11 C4.5 10.24 4.01 9.47 3.5 8.69 C2 6 2 6 2 3 C1.34 3 0.68 3 0 3 C0 2.01 0 1.02 0 0 Z " fill="#ABEDFE" transform="translate(43,169)"/>
<path d="M0 0 C-0.43 0.37 -0.86 0.73 -1.3 1.11 C-3.52 3.58 -4.75 6.21 -6.19 9.19 C-6.98 10.82 -6.98 10.82 -7.79 12.48 C-8.19 13.31 -8.59 14.14 -9 15 C-9.66 15 -10.32 15 -11 15 C-11.33 17.97 -11.66 20.94 -12 24 C-12.99 24.33 -13.98 24.66 -15 25 C-15.95 26.84 -15.95 26.84 -16.56 29 C-17.25 31.19 -17.25 31.19 -18 33 C-18.99 33.5 -18.99 33.5 -20 34 C-22.73 41.44 -23.01 48.55 -20 56 C-16.42 59.78 -12.92 60.84 -8 62 C-7.34 64.97 -6.68 67.94 -6 71 C-11.74 69.18 -14.42 67.99 -18 63 C-18.7 62.69 -19.4 62.38 -20.12 62.06 C-22 61 -22 61 -23.25 57.88 C-23.5 56.93 -23.74 55.98 -24 55 C-24.66 55 -25.32 55 -26 55 C-29.43 46.44 -27.8 38.75 -26 30 C-25.34 30 -24.68 30 -24 30 C-23.89 29.13 -23.78 28.26 -23.67 27.37 C-21.69 17.42 -15.32 6.63 -6.81 0.94 C-3.44 -1.15 -3.44 -1.15 0 0 Z " fill="#7C42B2" transform="translate(84,91)"/>
<path d="M0 0 C0.99 0.33 1.98 0.66 3 1 C3.84 3.73 3.84 3.73 4.5 7.19 C6.19 15.69 6.19 15.69 11.69 22.06 C14 24 14 24 14.62 26.56 C14 29 14 29 11.94 30.81 C8.23 32.31 5.97 32.55 2 32 C-2.24 30.12 -5.1 27.57 -7 23.31 C-8.67 17.81 -8.3 12.2 -6.14 6.88 C-4.44 3.72 -3.01 2 0 0 Z " fill="#65099B" transform="translate(138,48)"/>
<path d="M0 0 C0.99 0.33 1.98 0.66 3 1 C3.36 9.19 3.53 14.93 -2.06 21.38 C-4 23 -4 23 -6 23 C-6 23.66 -6 24.32 -6 25 C-9.03 25.67 -11.89 26.12 -15 26 C-18.64 23.34 -20.11 21.33 -21 17 C-20.53 16.6 -20.06 16.2 -19.57 15.79 C-18.95 15.26 -18.33 14.73 -17.69 14.19 C-17.07 13.67 -16.46 13.14 -15.82 12.61 C-14.01 11.05 -14.01 11.05 -12.48 9.42 C-10.48 7.51 -8.13 6.37 -5.72 5.05 C-3.46 3.67 -1.75 1.96 0 0 Z " fill="#66099C" transform="translate(176,57)"/>
<path d="M0 0 C2.48 3.73 2.38 5.59 2 10 C0.62 12.94 0.62 12.94 -1 15 C-1.66 15 -2.32 15 -3 15 C-3.31 15.64 -3.62 16.28 -3.94 16.94 C-5 19 -5 19 -6 20 C-8.25 20.44 -8.25 20.44 -11 20 C-13.08 18.17 -14.38 16.31 -16 14 C-16 13.34 -16 12.68 -16 12 C-16.66 12 -17.32 12 -18 12 C-19.12 9.75 -19.13 8.49 -19.12 6 C-19.13 4.95 -19.13 4.95 -19.13 3.88 C-19 2 -19 2 -18 0 C-15.36 0 -12.72 0 -10 0 C-10 0.66 -10 1.32 -10 2 C-9.34 2 -8.68 2 -8 2 C-8 1.34 -8 0.68 -8 0 C-5.07 -1.47 -3.12 -0.78 0 0 Z " fill="#BD78EF" transform="translate(107,157)"/>
<path d="M0 0 C-4.13 6.99 -9.51 10.17 -17 13 C-17.99 13 -18.98 13 -20 13 C-20 13.66 -20 14.32 -20 15 C-25.93 17.7 -30.59 18.77 -37 17 C-37.66 16.34 -38.32 15.68 -39 15 C-38.34 15 -37.68 15 -37 15 C-36.67 14.01 -36.34 13.02 -36 12 C-31.37 8.95 -26.57 6.97 -21.4 5.02 C-19.24 4.1 -17.54 3.08 -15.62 1.75 C-10.92 -1.15 -5.32 -0.31 0 0 Z " fill="#773CCA" transform="translate(85,174)"/>
<path d="M0 0 C1.32 0.66 2.64 1.32 4 2 C4 2.66 4 3.32 4 4 C4.88 4.11 5.76 4.21 6.66 4.32 C10.12 5.02 12.4 6.11 15.44 7.88 C18.54 9.64 21.57 11.34 24.88 12.69 C27.8 13.91 30.4 15.19 33 17 C33 17.66 33 18.32 33 19 C33.66 19.33 34.32 19.66 35 20 C29.79 22.27 25.44 22.23 20 21 C18.65 20.38 17.31 19.72 16 19 C16 18.34 16 17.68 16 17 C15.3 16.9 14.6 16.79 13.88 16.69 C10.61 15.91 7.95 14.58 5 13 C5.33 11.68 5.66 10.36 6 9 C6.66 9 7.32 9 8 9 C8 8.01 8 7.02 8 6 C7.26 6.68 6.51 7.36 5.75 8.06 C4.84 8.7 3.94 9.34 3 10 C1.68 9.67 0.36 9.34 -1 9 C-0.67 6.03 -0.34 3.06 0 0 Z " fill="#773CCA" transform="translate(175,170)"/>
<path d="M0 0 C0.67 2 1.33 4 2 6 C2.99 6.33 3.98 6.66 5 7 C4.67 7.66 4.34 8.32 4 9 C3.4 8.81 2.8 8.63 2.19 8.44 C-0.16 7.78 -0.16 7.78 -3 9 C-10.66 9.5 -18.12 8.63 -25.69 7.5 C-27.19 7.29 -27.19 7.29 -28.72 7.07 C-31.15 6.72 -33.57 6.36 -36 6 C-35.75 4.12 -35.75 4.12 -35 2 C-31.87 -0.28 -29.03 -0.22 -25.25 -0.16 C-23.59 -0.14 -23.59 -0.14 -21.91 -0.13 C-20.76 -0.11 -19.62 -0.08 -18.44 -0.06 C-16.17 -0.03 -13.89 0 -11.62 0.03 C-10.61 0.05 -9.61 0.06 -8.57 0.08 C-0.52 -0.17 -0.52 -0.17 0 0 Z " fill="#BC78EF" transform="translate(56,147)"/>
<path d="M0 0 C10.61 -0.88 20.72 1.74 31 4 C30.34 7.3 29.68 10.6 29 14 C24.28 15.18 22.63 14.46 18.12 12.81 C16.33 12.17 16.33 12.17 14.51 11.52 C10.9 9.96 8.11 8.38 5 6 C5 5.34 5 4.68 5 4 C4.36 3.9 3.72 3.79 3.06 3.69 C2.38 3.46 1.7 3.23 1 3 C0.67 2.01 0.34 1.02 0 0 Z " fill="#773CCA" transform="translate(27,107)"/>
<path d="M0 0 C2.88 -0.56 2.88 -0.56 6 0 C8 2.75 8 2.75 10 6 C11.92 7.57 13.86 8.74 16 10 C14.37 14.3 13.13 17.25 9.19 19.88 C6 21 6 21 3.38 20.06 C0.58 17.63 -1.18 15.23 -3 12 C-3 11.01 -3 10.02 -3 9 C-3.66 9 -4.32 9 -5 9 C-5 8.34 -5 7.68 -5 7 C-4.34 7 -3.68 7 -3 7 C-2.88 6.4 -2.75 5.8 -2.62 5.19 C-2 3 -2 3 0 0 Z " fill="#BE7AEE" transform="translate(155,156)"/>
<path d="M0 0 C3.19 1.79 4.53 3.16 6.31 6.31 C7.76 11.99 7.11 16.6 5 22 C4.34 22 3.68 22 3 22 C2.88 21.4 2.75 20.79 2.62 20.17 C1.77 16.84 0.98 13.98 -1.49 11.51 C-7.75 7.82 -14.98 8.65 -22 9 C-16.34 1.28 -9.57 -1.46 0 0 Z " fill="#A7EEFF" transform="translate(167,113)"/>
<path d="M0 0 C1.34 0.5 1.34 0.5 2.71 1 C9.26 2.88 16.28 2.04 23.02 1.83 C24.1 1.82 25.18 1.8 26.29 1.78 C27.27 1.75 28.24 1.72 29.25 1.69 C32.54 2.06 34.4 2.97 37 5 C37 5.99 37 6.98 37 8 C33.46 8.51 29.92 9 26.38 9.5 C25.38 9.64 24.38 9.79 23.35 9.93 C18.53 10.6 13.88 11.2 9 11 C8.34 9.35 7.68 7.7 7 6 C5.68 7.32 4.36 8.64 3 10 C-0.01 6.99 0.4 4.18 0 0 Z " fill="#773CCA" transform="translate(199,145)"/>
<path d="M0 0 C0.25 0.54 0.5 1.07 0.75 1.62 C2.04 4.17 2.04 4.17 4.06 7.06 C6 10 6 10 7 13 C7.66 13 8.32 13 9 13 C9 13.66 9 14.32 9 15 C9.54 15.27 10.07 15.54 10.62 15.81 C13.42 17.21 16.21 18.6 19 20 C17.14 22.02 15.71 22.96 12.94 23.12 C7.7 22.71 4 21.61 0 18 C-2.54 12.81 -2.86 7.54 -1 2.06 C-0.5 1.04 -0.5 1.04 0 0 Z " fill="#A7EEFF" transform="translate(66,128)"/>
<path d="M0 0 C0.66 0 1.32 0 2 0 C2.35 1.43 2.35 1.43 2.7 2.89 C3.03 4.14 3.35 5.4 3.69 6.69 C4 7.93 4.31 9.17 4.64 10.45 C6.14 14.36 7.98 16.18 11 19 C10.81 21.31 10.81 21.31 10 23 C6.28 23.35 4.17 23.08 0.75 21.5 C-2.12 18.89 -3.17 17.05 -3.9 13.24 C-4.08 9.32 -3.12 5.73 -2 2 C-1.34 2 -0.68 2 0 2 C0 1.34 0 0.68 0 0 Z " fill="#7C42B2" transform="translate(137,54)"/>
<path d="M0 0 C0 1.65 0 3.3 0 5 C-0.66 5 -1.32 5 -2 5 C-2.33 6.65 -2.66 8.3 -3 10 C-6 9 -6 9 -8 6 C-8.66 8.31 -9.32 10.62 -10 13 C-11.32 13 -12.64 13 -14 13 C-14.33 11.68 -14.66 10.36 -15 9 C-15.66 9 -16.32 9 -17 9 C-17.33 6.69 -17.66 4.38 -18 2 C-15.94 1.66 -13.88 1.33 -11.81 1 C-10.66 0.81 -9.52 0.63 -8.33 0.44 C-5.5 0.07 -2.85 -0.09 0 0 Z " fill="#BC78EF" transform="translate(213,109)"/>
<path d="M0 0 C0.33 0 0.66 0 1 0 C1.42 6.06 1.13 9.2 -3 14 C-6.28 16.75 -7.48 17.04 -11.81 16.69 C-12.86 16.46 -13.92 16.23 -15 16 C-15.33 14.68 -15.66 13.36 -16 12 C-14.21 10.83 -12.42 9.66 -10.62 8.5 C-9.63 7.85 -8.63 7.2 -7.6 6.53 C-5 5 -5 5 -3 5 C-2.69 4.36 -2.38 3.72 -2.06 3.06 C-1 1 -1 1 0 0 Z " fill="#7C42B2" transform="translate(175,62)"/>
<path d="M0 0 C-3.35 5.67 -6.72 8.79 -13.06 11.12 C-16 11 -16 11 -17.49 9.71 C-18.88 8.06 -18.88 8.06 -21 5 C-14.02 0.07 -8.43 -0.64 0 0 Z " fill="#B673EC" transform="translate(85,174)"/>
<path d="M0 0 C0 1.65 0 3.3 0 5 C-0.66 5 -1.32 5 -2 5 C-2.15 5.87 -2.15 5.87 -2.31 6.75 C-3.12 9.38 -4.13 10.99 -6 13 C-6.99 13 -7.98 13 -9 13 C-11.85 9.76 -13.86 6.3 -14.31 2 C-14.21 1.34 -14.11 0.68 -14 0 C-11.33 0 -8.67 0 -6 0 C-3.51 -1.25 -2.59 -0.78 0 0 Z " fill="#CE9BEA" transform="translate(106,161)"/>
<path d="M0 0 C5 0.23 8.03 2.07 12 5 C11.67 5.99 11.34 6.98 11 8 C10.34 8 9.68 8 9 8 C8.73 8.6 8.46 9.2 8.19 9.81 C7.01 11.98 5.77 13.31 4 15 C-1.83 9.14 -1.83 9.14 -2.5 4.69 C-2 2 -2 2 0 0 Z " fill="#9962D7" transform="translate(156,159)"/>
<path d="M0 0 C0.98 0.01 1.95 0.02 2.96 0.03 C4.06 0.04 4.06 0.04 5.19 0.06 C4.86 1.05 4.53 2.04 4.19 3.06 C2.85 3.4 1.52 3.73 0.19 4.06 C-0.14 5.05 -0.47 6.04 -0.81 7.06 C-2.99 8.48 -2.99 8.48 -5.69 9.81 C-6.57 10.26 -7.46 10.71 -8.37 11.17 C-10.81 12.06 -10.81 12.06 -13.81 11.06 C-13.48 9.74 -13.15 8.42 -12.81 7.06 C-12.15 7.06 -11.49 7.06 -10.81 7.06 C-10.81 5.08 -10.81 3.1 -10.81 1.06 C-7.14 0.21 -3.77 -0.05 0 0 Z " fill="#773CCA" transform="translate(223.8125,106.9375)"/>
<path d="M0 0 C4.48 0.63 8.24 2.36 12.25 4.38 C12.89 4.68 13.52 4.98 14.18 5.3 C15.83 6.12 17.42 7.05 19 8 C19.33 8.99 19.66 9.98 20 11 C15.25 12.12 15.25 12.12 13 11 C12.09 11.06 11.19 11.12 10.25 11.19 C6 10.94 4.14 9.85 1 7 C0.12 3.25 0.12 3.25 0 0 Z " fill="#7C42B2" transform="translate(63,159)"/>
<path d="M0 0 C1.32 0.66 2.64 1.32 4 2 C4 2.66 4 3.32 4 4 C4.89 4.1 5.77 4.21 6.69 4.31 C10.06 5.01 12.17 6.09 15 8 C14.44 11.27 13.5 12.83 11 15 C9.02 14.34 7.04 13.68 5 13 C5.33 11.68 5.66 10.36 6 9 C6.66 9 7.32 9 8 9 C8 8.01 8 7.02 8 6 C7.26 6.68 6.51 7.36 5.75 8.06 C4.84 8.7 3.94 9.34 3 10 C1.68 9.67 0.36 9.34 -1 9 C-0.67 6.03 -0.34 3.06 0 0 Z " fill="#BC78EF" transform="translate(175,170)"/>
<path d="M0 0 C1.08 0.02 2.16 0.04 3.27 0.05 C4.5 0.09 4.5 0.09 5.75 0.12 C6.41 2.76 7.07 5.41 7.75 8.12 C5.52 7.98 3.29 7.84 1.06 7.69 C-0.18 7.61 -1.42 7.53 -2.7 7.44 C-5.63 7.18 -8.38 6.78 -11.25 6.12 C-11 4.25 -11 4.25 -10.25 2.12 C-6.9 -0.15 -3.97 -0.09 0 0 Z " fill="#773CCA" transform="translate(31.25,146.875)"/>
<path d="M0 0 C0.5 4.06 1 8.12 1.5 12.19 C1.64 13.34 1.79 14.49 1.93 15.67 C2.07 16.79 2.2 17.9 2.34 19.04 C2.47 20.06 2.6 21.09 2.72 22.14 C2.98 24.78 3.05 27.35 3 30 C2.01 30 1.02 30 0 30 C-1.78 23.39 -2.93 16.76 -4 10 C-4.21 8.94 -4.42 7.88 -4.64 6.78 C-5 4 -5 4 -3.69 1.62 C-2 0 -2 0 0 0 Z " fill="#BB7AF0" transform="translate(129,139)"/>
<path d="M0 0 C0.93 0.33 1.86 0.66 2.81 1 C7.81 2.46 12.84 2.17 18 2 C17.01 4.97 16.02 7.94 15 11 C13.02 11 11.04 11 9 11 C8.34 9.35 7.68 7.7 7 6 C5.68 7.32 4.36 8.64 3 10 C-0.01 6.99 0.4 4.18 0 0 Z " fill="#BC78EF" transform="translate(199,145)"/>
<path d="M0 0 C5.45 0.99 5.45 0.99 11 2 C10.34 5.3 9.68 8.6 9 12 C5 13 5 13 0 11 C0 7.37 0 3.74 0 0 Z " fill="#BC78EF" transform="translate(47,109)"/>
<path d="M0 0 C2.78 1.39 2.98 3.16 4 6 C5.12 5.92 6.25 5.83 7.4 5.75 C15.08 5.21 22.37 4.75 30 6 C30.99 4.02 31.98 2.04 33 0 C33.66 0.33 34.32 0.66 35 1 C34.48 4.77 33.73 7.27 31 10 C29.68 10 28.36 10 27 10 C27 9.34 27 8.68 27 8 C20.4 8 13.8 8 7 8 C7 8.66 7 9.32 7 10 C5.68 10 4.36 10 3 10 C0.69 7.25 0.69 7.25 -1 4 C-0.75 1.62 -0.75 1.62 0 0 Z " fill="#3E0970" transform="translate(111,164)"/>
<path d="M0 0 C-0.75 6.75 -0.75 6.75 -3 9 C-5.16 8.76 -5.16 8.76 -7.62 8.12 C-8.85 7.82 -8.85 7.82 -10.1 7.51 C-10.73 7.34 -11.35 7.17 -12 7 C-12 5.68 -12 4.36 -12 3 C-10.75 2.49 -9.5 1.99 -8.25 1.5 C-7.55 1.22 -6.86 0.94 -6.14 0.66 C-4 0 -4 0 0 0 Z " fill="#7C42B2" transform="translate(193,147)"/>
<path d="M0 0 C2.97 0.5 2.97 0.5 6 1 C6.05 2.58 6.09 4.17 6.12 5.75 C6.15 6.63 6.17 7.51 6.2 8.42 C5.99 11.11 5.37 12.7 4 15 C2.68 15 1.36 15 0 15 C0.93 10.22 0.93 10.22 1.69 7.88 C2.27 5.67 2.27 5.67 0 3 C0 2.01 0 1.02 0 0 Z " fill="#BB7AF0" transform="translate(128,171)"/>
<path d="M0 0 C1.32 0 2.64 0 4 0 C4.33 2.31 4.66 4.62 5 7 C5.66 7 6.32 7 7 7 C7.33 8.32 7.66 9.64 8 11 C5.69 11 3.38 11 1 11 C0.67 7.37 0.34 3.74 0 0 Z " fill="#773CCA" transform="translate(191,111)"/>
<path d="M0 0 C0.99 0.33 1.98 0.66 3 1 C2.67 2.65 2.34 4.3 2 6 C1.01 6 0.02 6 -1 6 C-1 6.66 -1 7.32 -1 8 C-1.66 8 -2.32 8 -3 8 C-3.33 8.99 -3.66 9.98 -4 11 C-4.99 11.33 -5.98 11.66 -7 12 C-6.43 8.04 -5.3 5.28 -3 2 C-2.01 1.34 -1.02 0.68 0 0 Z " fill="#440977" transform="translate(138,48)"/>
<path d="M0 0 C0.66 0.33 1.32 0.66 2 1 C1.48 4.77 0.73 7.27 -2 10 C-3.32 10 -4.64 10 -6 10 C-6 9.34 -6 8.68 -6 8 C-8.97 7.67 -11.94 7.34 -15 7 C-15 6.34 -15 5.68 -15 5 C-11.04 5.33 -7.08 5.66 -3 6 C-2.01 4.02 -1.02 2.04 0 0 Z " fill="#66099C" transform="translate(144,164)"/>
<path d="M0 0 C2.31 0.38 2.31 0.38 5 2 C6.38 5.25 7.22 8.57 8 12 C5.69 11.34 3.38 10.68 1 10 C1.02 8.91 1.04 7.81 1.06 6.69 C1.19 3.06 1.19 3.06 0 0 Z " fill="#773CCA" transform="translate(194,143)"/>
<path d="M0 0 C3 3 3 3 3.5 5.12 C3.66 5.74 3.83 6.36 4 7 C4.99 7.33 5.98 7.66 7 8 C6.67 8.66 6.34 9.32 6 10 C3.03 9.5 3.03 9.5 0 9 C0 6.03 0 3.06 0 0 Z " fill="#6F37C8" transform="translate(54,146)"/>
<path d="M0 0 C0.66 0 1.32 0 2 0 C1.34 3.3 0.68 6.6 0 10 C-1.32 10.33 -2.64 10.66 -4 11 C-3.39 6.87 -1.96 3.67 0 0 Z " fill="#7D42CD" transform="translate(56,111)"/>
<path d="M0 0 C1.38 1.29 2.71 2.63 4 4 C4 4.66 4 5.32 4 6 C1.36 6 -1.28 6 -4 6 C-3.67 5.34 -3.34 4.68 -3 4 C-2.34 4 -1.68 4 -1 4 C-0.67 2.68 -0.34 1.36 0 0 Z " fill="#773CCA" transform="translate(46,150)"/>
<path d="M0 0 C3.88 4.75 3.88 4.75 5 7 C3.02 7.66 1.04 8.32 -1 9 C-0.67 6.03 -0.34 3.06 0 0 Z " fill="#773CCA" transform="translate(204,113)"/>
<path d="M0 0 C0.66 0.33 1.32 0.66 2 1 C1.67 3.64 1.34 6.28 1 9 C-0.32 7.68 -1.64 6.36 -3 5 C-1.12 1.12 -1.12 1.12 0 0 Z " fill="#773CCA" transform="translate(173,169)"/>
<path d="M0 0 C0 0.99 0 1.98 0 3 C-0.66 3 -1.32 3 -2 3 C-2.66 4.32 -3.32 5.64 -4 7 C-4.99 6.01 -5.98 5.02 -7 4 C-2.25 0 -2.25 0 0 0 Z " fill="#773CCA" transform="translate(183,176)"/>
<path d="M0 0 C4.75 0.75 4.75 0.75 7 3 C5.35 3.66 3.7 4.32 2 5 C2 4.01 2 3.02 2 2 C1.34 2 0.68 2 0 2 C0 1.34 0 0.68 0 0 Z " fill="#773CCA" transform="translate(73,178)"/>
<path d="M0 0 C2 3.75 2 3.75 2 6 C0.35 6 -1.3 6 -3 6 C-1.12 1.12 -1.12 1.12 0 0 Z " fill="#773CCA" transform="translate(206,150)"/>
</svg>
